<svg width="1841" height="140" viewBox="0 0 1841 140" fill="none" xmlns="http://www.w3.org/2000/svg">
<g clip-path="url(#clip0_32_288)">
<path d="M169.506 130.15L201.709 9.94817C202.384 7.44269 203.833 5.28109 206.044 3.47567C208.267 1.67025 210.625 0.773682 213.143 0.773682H286.809C325.755 0.773682 340.407 18.7296 330.79 54.6538C321.186 90.5044 296.905 108.436 257.971 108.436H211.718L205.897 130.162C205.221 132.668 203.747 134.829 201.463 136.635C199.265 138.379 196.906 139.238 194.389 139.238H176.248C173.743 139.238 171.815 138.366 170.476 136.635C169.162 134.829 168.83 132.68 169.506 130.162V130.15ZM219.05 81.0965H254.287C265.095 81.0965 273.79 79.2911 280.361 75.6925C286.944 72.0203 291.623 65.0074 294.399 54.6416C297.175 44.2757 296.278 37.2014 291.636 33.5906C287.018 29.9183 279.305 28.0884 268.485 28.0884H233.248L219.05 81.0965Z" fill="#C7D0B4"/>
<path d="M328.481 129.953L360.684 9.75166C361.36 7.24618 362.833 5.12143 365.093 3.37742C367.365 1.63341 369.748 0.773682 372.266 0.773682H483.588C486.093 0.773682 487.985 1.67025 489.237 3.47567C490.552 5.28109 490.883 7.43041 490.208 9.94817L487.776 19.0244C487.1 21.5299 485.627 23.6915 483.342 25.4969C481.144 27.2286 478.786 28.1006 476.268 28.1006H392.174L384.646 56.2013H457.059C459.565 56.2013 461.456 57.0979 462.709 58.9033C464.047 60.6474 464.379 62.7598 463.704 65.2776L461.272 74.3538C460.596 76.8593 459.122 79.0209 456.838 80.8263C454.64 82.5581 452.282 83.4301 449.764 83.4301H377.35L369.723 111.912H453.632C456.077 111.912 457.943 112.784 459.208 114.515C460.486 116.259 460.781 118.372 460.105 120.889L457.624 130.162C456.949 132.668 455.475 134.829 453.19 136.635C450.918 138.379 448.536 139.238 446.018 139.238H335.175C332.669 139.238 330.741 138.366 329.402 136.635C328.088 134.829 327.781 132.606 328.481 129.978V129.953Z" fill="#C7D0B4"/>
<path d="M618.208 135.075C617.471 137.838 615.457 139.226 612.178 139.226H589.002C586.558 139.226 584.089 138.354 581.584 136.622C579.177 134.817 577.531 132.668 576.659 130.15L567.128 104.469C563.198 93.9064 556.443 88.6375 546.851 88.6375H523.295L512.167 130.15C511.492 132.655 510.018 134.817 507.734 136.622C505.535 138.366 503.177 139.226 500.659 139.226H482.507C480.001 139.226 478.073 138.354 476.734 136.622C475.42 134.817 475.089 132.668 475.764 130.15L507.979 9.94817C508.655 7.44269 510.104 5.28109 512.315 3.47567C514.538 1.67025 516.896 0.773682 519.414 0.773682H599.073C613.811 0.773682 624.816 4.72841 632.099 12.6502C639.443 20.5719 641.31 31.2571 637.699 44.7056C632.676 63.4353 617.398 75.189 591.851 79.942C595.34 81.3544 598.25 83.7985 600.608 87.2742C602.979 90.6886 605.411 95.675 607.891 102.233L617.987 130.138C618.54 131.943 618.613 133.577 618.208 135.063V135.075ZM530.615 61.3106H571.746C578.378 61.3106 584.556 59.9964 590.279 57.3558C596.076 54.7152 599.749 50.5026 601.296 44.7056C602.844 38.9086 601.431 34.696 597.059 32.0554C592.748 29.4148 587.27 28.1006 580.638 28.1006H539.507L530.602 61.3106H530.615Z" fill="#C7D0B4"/>
<path d="M635.698 129.953L667.802 10.1324C668.514 7.49181 669.976 5.26881 672.199 3.47567C674.422 1.67025 676.78 0.773682 679.298 0.773682H718.587C721.093 0.773682 723.242 1.67025 725.011 3.47567C726.779 5.28109 727.713 7.43041 727.811 9.94817L734.197 92.408L784.774 9.94817C786.223 7.44269 788.311 5.28109 791.05 3.47567C793.789 1.67025 796.405 0.773682 798.922 0.773682H838.212C840.717 0.773682 842.572 1.67025 843.763 3.47567C845.016 5.28109 845.298 7.5041 844.586 10.1324L812.481 129.953C811.769 132.594 810.283 134.817 807.986 136.61C805.788 138.354 803.43 139.214 800.912 139.214H783.533C781.028 139.214 779.1 138.342 777.761 136.61C776.508 134.805 776.238 132.582 776.938 129.953L802.214 35.6171L742.696 130.531C741.161 132.913 739.024 134.977 736.31 136.708C733.608 138.379 731.004 139.214 728.499 139.214H714.694C712.188 139.214 710.027 138.379 708.221 136.708C706.502 134.964 705.47 132.913 705.151 130.531L696.591 35.6171L671.315 129.953C670.602 132.594 669.116 134.817 666.832 136.61C664.633 138.354 662.275 139.214 659.758 139.214H642.379C639.873 139.214 637.945 138.342 636.606 136.61C635.292 134.805 634.985 132.582 635.685 129.953H635.698Z" fill="#C7D0B4"/>
<path d="M828.706 130.346L877.575 38.4296C890.852 13.3871 915.587 0.835091 951.769 0.773682H1003.81C1006.19 0.773682 1007.91 1.67025 1008.98 3.47567C1010.11 5.28109 1010.35 7.369 1009.71 9.75166L977.401 130.346C976.726 132.852 975.264 134.977 972.992 136.721C970.745 138.391 968.362 139.226 965.856 139.226H947.704C945.063 139.226 943.098 138.391 941.809 136.721C940.605 134.977 940.347 132.791 941.059 130.15L947.581 105.82H878.938L865.944 130.15C864.593 132.791 862.554 134.977 859.84 136.721C857.138 138.391 854.534 139.226 852.017 139.226H832.992C830.487 139.226 828.865 138.514 828.153 137.101C827.453 135.615 827.256 134.338 827.551 133.233C827.907 132.14 828.3 131.169 828.718 130.334L828.706 130.346ZM893.382 78.4928H954.889L968.399 28.0884H940.887C934.71 28.0884 928.827 29.8569 923.239 33.3941C917.736 36.8698 913.389 41.5737 910.195 47.4936L893.394 78.4805L893.382 78.4928Z" fill="#C7D0B4"/>
<path d="M1005.06 130.15L1037.27 9.94817C1037.95 7.44269 1039.42 5.28109 1041.71 3.47567C1043.99 1.67025 1046.46 0.773682 1049.09 0.773682H1067.05C1069.55 0.773682 1071.44 1.67025 1072.7 3.47567C1074.01 5.28109 1074.34 7.43041 1073.67 9.94817L1062.02 53.4011H1128.45L1140.1 9.94817C1140.77 7.44269 1142.25 5.28109 1144.53 3.47567C1146.82 1.67025 1149.21 0.773682 1151.73 0.773682H1169.68C1172.33 0.773682 1174.27 1.67025 1175.53 3.47567C1176.85 5.28109 1177.18 7.43041 1176.5 9.94817L1144.29 130.15C1143.61 132.655 1142.1 134.817 1139.75 136.622C1137.48 138.366 1135.1 139.226 1132.58 139.226H1114.63C1112.12 139.226 1110.18 138.391 1108.83 136.721C1107.49 134.977 1107.16 132.864 1107.83 130.346L1121.13 80.7158H1054.7L1041.4 130.346C1040.73 132.852 1039.26 134.977 1036.99 136.721C1034.81 138.391 1032.46 139.226 1029.94 139.226H1011.99C1009.48 139.226 1007.52 138.354 1006.12 136.622C1004.73 134.817 1004.37 132.668 1005.05 130.15H1005.06Z" fill="#C7D0B4"/>
<path d="M1160.65 130.346L1209.51 38.4296C1222.79 13.3871 1247.53 0.835091 1283.71 0.773682H1335.75C1338.13 0.773682 1339.85 1.67025 1340.92 3.47567C1342.05 5.28109 1342.29 7.369 1341.65 9.75166L1309.34 130.346C1308.67 132.852 1307.2 134.977 1304.93 136.721C1302.68 138.391 1300.3 139.226 1297.8 139.226H1279.64C1277 139.226 1275.04 138.391 1273.75 136.721C1272.54 134.977 1272.29 132.791 1273 130.15L1279.52 105.82H1210.88L1197.88 130.15C1196.53 132.791 1194.49 134.977 1191.78 136.721C1189.08 138.391 1186.47 139.226 1183.97 139.226H1164.94C1162.44 139.226 1160.82 138.514 1160.11 137.101C1159.41 135.615 1159.21 134.338 1159.5 133.233C1159.86 132.14 1160.25 131.169 1160.67 130.334L1160.65 130.346ZM1225.32 78.4928H1286.83L1300.34 28.0884H1272.82C1266.64 28.0884 1260.75 29.8569 1255.17 33.3941C1249.66 36.8698 1245.32 41.5737 1242.12 47.4936L1225.32 78.4805V78.4928Z" fill="#C7D0B4"/>
<path d="M1348.89 122.904C1340.03 111.506 1338.79 93.9065 1345.18 70.0921C1351.58 46.2163 1362.26 28.5797 1377.22 17.1822C1392.27 5.72331 1411.72 0 1435.61 0H1457.14C1471.76 0 1483.63 3.79507 1492.79 11.3975C1502.02 18.9876 1504.88 29.3903 1501.34 42.5809C1500.32 46.376 1498.46 49.1148 1495.77 50.7852C1493.08 52.3941 1490.67 53.2047 1488.54 53.2047H1477.06C1471.14 53.2047 1467.48 49.6675 1466.11 42.5809C1464.07 32.4116 1457.51 27.327 1446.44 27.327H1429.25C1415.16 27.327 1404.78 30.3483 1398.15 36.4032C1391.51 42.4581 1385.99 53.6591 1381.62 70.0061C1377.23 86.3532 1376.74 97.591 1380.12 103.707C1383.52 109.762 1392.27 112.784 1406.35 112.784H1425.58C1436.64 112.784 1445.89 107.699 1453.32 97.5296C1458.52 90.3816 1464.1 86.8076 1470.1 86.8076H1481.58C1484.61 86.8076 1486.69 87.9375 1487.82 90.1851C1489.02 92.4327 1489.26 94.889 1488.56 97.5173C1485.02 110.708 1476.63 121.111 1463.4 128.701C1450.19 136.229 1436.29 140 1421.67 140H1398.11C1374.24 140 1357.83 134.301 1348.91 122.904H1348.89Z" fill="#C7D0B4"/>
<path d="M1640.6 134.977C1639.84 137.814 1637.79 139.226 1634.45 139.226H1612.33C1609.83 139.226 1607.36 138.354 1604.93 136.622C1602.51 134.817 1600.84 132.668 1599.9 130.15L1590.13 103.216C1587.83 96.6452 1585.07 91.7325 1581.82 88.4409C1578.59 85.088 1574.1 83.4177 1568.3 83.4177H1547.55L1534.97 130.346C1534.29 132.852 1532.83 134.977 1530.56 136.721C1528.36 138.391 1526.02 139.226 1523.51 139.226H1505.36C1502.85 139.226 1500.94 138.33 1499.61 136.524C1498.32 134.657 1497.99 132.471 1498.66 129.953L1530.82 9.93582C1531.49 7.43033 1532.99 5.2319 1535.28 3.36506C1537.59 1.49823 1539.99 0.564819 1542.5 0.564819H1560.65C1563.16 0.564819 1565.04 1.49823 1566.28 3.36506C1567.58 5.2319 1567.9 7.41805 1567.22 9.93582L1554.83 56.189H1575.59C1581.25 56.189 1586.63 54.6415 1591.7 51.5588C1596.83 48.4638 1602.26 43.4774 1607.97 36.5996L1630.08 9.9481C1635.14 3.77036 1640.62 0.650792 1646.49 0.577101H1668.79C1671.87 0.577101 1673.07 1.9281 1672.34 4.63009C1671.95 6.11618 1670.92 7.88476 1669.27 9.93582L1638.15 47.8742C1633.64 53.4133 1629.01 57.9821 1624.25 61.5807C1619.54 65.1793 1613.98 67.7339 1607.53 69.2077C1611.53 70.1042 1615.17 72.7817 1618.42 77.2154C1621.73 81.6614 1624.41 86.4882 1626.41 91.6956L1640.26 130.125C1640.85 131.992 1640.96 133.601 1640.6 134.952V134.977Z" fill="#C7D0B4"/>
<path d="M1654.96 103.793C1655.98 99.9982 1657.84 97.2962 1660.51 95.6873C1663.22 94.017 1665.64 93.1818 1667.76 93.1818H1679.24C1685.04 93.1818 1688.6 96.3382 1689.94 102.639C1691.27 108.952 1697.22 112.096 1707.79 112.096L1741.39 112.771C1752.73 112.771 1759.38 109.074 1761.36 101.669C1762.86 96.068 1757.11 91.6589 1744.15 88.4411C1738.37 86.955 1731.93 85.518 1724.85 84.0933C1717.77 82.6072 1710.83 80.7772 1704.02 78.5911C1697.27 76.4049 1691.19 73.8257 1685.81 70.8658C1680.43 67.9059 1676.49 63.8529 1674.01 58.6946C1671.62 53.4748 1671.35 47.3708 1673.23 40.3456C1676.69 27.4129 1683.96 17.4646 1695.03 10.5132C1706.12 3.50026 1722.89 -0.0123291 1745.36 -0.0123291L1769.72 0.564915C1782.91 0.564915 1793.88 3.97925 1802.61 10.7956C1811.42 17.5506 1814.47 26.0128 1811.74 36.1944C1810.72 39.9894 1808.85 42.7283 1806.16 44.3986C1803.45 46.0689 1801.08 46.9041 1799.02 46.9041H1787.52C1781.73 46.9041 1778.17 43.7477 1776.82 37.4471C1775.51 31.0729 1769.58 27.8919 1759.03 27.8919L1730.11 27.3146C1718.79 27.3146 1712.13 31.0114 1710.16 38.4174C1709.08 42.4703 1711.75 45.7864 1718.2 48.3656C1724.72 50.9448 1732.8 53.2292 1742.43 55.2188C1752.15 57.1471 1761.79 59.5052 1771.34 62.2686C1780.9 65.032 1788.39 69.6008 1793.83 75.975C1799.35 82.2879 1800.85 90.1728 1798.32 99.6298C1794.85 112.562 1787.53 122.548 1776.39 129.56C1765.31 136.512 1748.59 139.988 1726.2 139.988L1697.1 139.41C1683.9 139.41 1672.91 136.033 1664.09 129.278C1655.29 122.449 1652.26 113.963 1654.99 103.793H1654.96Z" fill="#C7D0B4"/>
<path d="M40.5765 131.099C39.8838 133.61 38.3852 135.74 36.0555 137.488C33.8012 139.163 31.3959 140 28.8269 140H10.2137C7.64468 140 5.68004 139.101 4.31995 137.291C2.99764 135.42 2.65775 133.229 3.35039 130.705L36.3199 10.3939C37.0125 7.88229 38.5489 5.67848 40.8913 3.80709C43.2589 1.9357 45.7272 1 48.2962 1H66.9093C69.4784 1 71.4051 1.9357 72.6771 3.80709C74.012 5.67848 74.3394 7.86997 73.6468 10.3939L40.5639 131.086L40.5765 131.099Z" fill="#9B4515"/>
<path d="M140.342 131.099C139.645 133.61 138.135 135.74 135.789 137.488C133.519 139.163 131.097 140 128.51 140H64.2643C61.6772 140 59.699 139.101 58.3293 137.291C56.9977 135.42 56.6553 133.229 57.3528 130.705L90.5535 10.3939C91.251 7.88229 92.7982 5.67848 95.157 3.80709C97.5412 1.9357 100.027 1 102.614 1H166.86C169.447 1 171.387 1.9357 172.668 3.80709C174.012 5.67848 174.342 7.86997 173.644 10.3939L140.329 131.086L140.342 131.099Z" fill="#FF630B"/>
</g>
<defs>
<clipPath id="clip0_32_288">
<rect width="1839.37" height="140" fill="white" transform="translate(0.901367)"/>
</clipPath>
</defs>
</svg>
